<svg width="112" height="116" viewBox="0 0 112 116" fill="none" xmlns="http://www.w3.org/2000/svg">
<rect x="8" y="24" width="96" height="84" rx="12" fill="#4285F4"/>
<rect x="8" y="24" width="96" height="84" rx="12" stroke="#4285F4" stroke-width="8"/>
<rect x="8" y="24" width="96" height="84" rx="12" fill="white" fill-opacity="0.01"/>
<rect x="8" y="24" width="96" height="84" rx="12" stroke="white" stroke-width="8"/>
<rect x="8" y="24" width="96" height="84" rx="12" stroke="#4285F4" stroke-width="8"/>
<rect x="8" y="24" width="96" height="84" rx="12" fill="white" fill-opacity="0.01"/>
<rect x="8" y="24" width="96" height="84" rx="12" stroke="white" stroke-width="8"/>
<rect x="8" y="24" width="96" height="84" rx="12" stroke="#4285F4" stroke-width="8"/>
<rect x="8" y="24" width="96" height="84" rx="12" fill="white" fill-opacity="0.01"/>
<rect x="8" y="24" width="96" height="84" rx="12" stroke="white" stroke-width="8"/>
<rect x="8" y="24" width="96" height="84" rx="12" stroke="#4285F4" stroke-width="8"/>
<rect x="8" y="24" width="96" height="84" rx="12" fill="white" fill-opacity="0.01"/>
<rect x="8" y="24" width="96" height="84" rx="12" stroke="white" stroke-width="8"/>
<rect x="8" y="24" width="96" height="84" rx="12" stroke="#4285F4" stroke-width="8"/>
<rect x="8" y="24" width="96" height="84" rx="12" fill="white" fill-opacity="0.01"/>
<rect x="8" y="24" width="96" height="84" rx="12" stroke="white" stroke-width="8"/>
<rect x="8" y="24" width="96" height="84" rx="12" stroke="#4285F4" stroke-width="8"/>
<rect x="8" y="24" width="96" height="84" rx="12" fill="white" fill-opacity="0.01"/>
<rect x="8" y="24" width="96" height="84" rx="12" stroke="white" stroke-width="8"/>
<rect x="8" y="24" width="96" height="84" rx="12" stroke="#4285F4" stroke-width="8"/>
<rect x="8" y="24" width="96" height="84" rx="12" fill="white" fill-opacity="0.01"/>
<rect x="8" y="24" width="96" height="84" rx="12" stroke="white" stroke-width="8"/>
<rect x="8" y="24" width="96" height="84" rx="12" stroke="#4285F4" stroke-width="8"/>
<rect x="8" y="24" width="96" height="84" rx="12" fill="white" fill-opacity="0.01"/>
<rect x="8" y="24" width="96" height="84" rx="12" stroke="white" stroke-width="8"/>
<rect x="8" y="24" width="96" height="84" rx="12" stroke="#4285F4" stroke-width="8"/>
<rect x="8" y="24" width="96" height="84" rx="12" fill="white" fill-opacity="0.01"/>
<rect x="8" y="24" width="96" height="84" rx="12" stroke="white" stroke-width="8"/>
<rect x="8" y="24" width="96" height="84" rx="12" stroke="#4285F4" stroke-width="8"/>
<rect x="8" y="24" width="96" height="84" rx="12" fill="white" fill-opacity="0.01"/>
<rect x="8" y="24" width="96" height="84" rx="12" stroke="white" stroke-width="8"/>
<rect x="8" y="24" width="96" height="84" rx="12" stroke="#4285F4" stroke-width="8"/>
<rect x="8" y="24" width="96" height="84" rx="12" fill="white" fill-opacity="0.01"/>
<rect x="8" y="24" width="96" height="84" rx="12" stroke="white" stroke-width="8"/>
<rect x="8" y="24" width="96" height="84" rx="12" stroke="#4285F4" stroke-width="8"/>
<rect x="8" y="24" width="96" height="84" rx="12" fill="white" fill-opacity="0.01"/>
<rect x="8" y="24" width="96" height="84" rx="12" stroke="white" stroke-width="8"/>
<rect x="8" y="24" width="96" height="84" rx="12" stroke="#4285F4" stroke-width="8"/>
<rect x="8" y="24" width="96" height="84" rx="12" fill="white" fill-opacity="0.01"/>
<rect x="8" y="24" width="96" height="84" rx="12" stroke="white" stroke-width="8"/>
<rect x="8" y="24" width="96" height="84" rx="12" stroke="#4285F4" stroke-width="8"/>
<rect x="8" y="24" width="96" height="84" rx="12" fill="white" fill-opacity="0.01"/>
<rect x="8" y="24" width="96" height="84" rx="12" stroke="white" stroke-width="8"/>
<rect x="8" y="24" width="96" height="84" rx="12" stroke="#4285F4" stroke-width="8"/>
<rect x="8" y="24" width="96" height="84" rx="12" fill="white" fill-opacity="0.01"/>
<rect x="8" y="24" width="96" height="84" rx="12" stroke="white" stroke-width="8"/>
<rect x="8" y="24" width="96" height="84" rx="12" stroke="#4285F4" stroke-width="8"/>
<rect x="8" y="24" width="96" height="84" rx="12" fill="white" fill-opacity="0.01"/>
<rect x="8" y="24" width="96" height="84" rx="12" stroke="white" stroke-width="8"/>
<rect x="8" y="24" width="96" height="84" rx="12" stroke="#4285F4" stroke-width="8"/>
<rect x="8" y="24" width="96" height="84" rx="12" fill="white" fill-opacity="0.01"/>
<rect x="8" y="24" width="96" height="84" rx="12" stroke="white" stroke-width="8"/>
<rect x="8" y="24" width="96" height="84" rx="12" stroke="#4285F4" stroke-width="8"/>
<rect x="8" y="24" width="96" height="84" rx="12" fill="white" fill-opacity="0.01"/>
<rect x="8" y="24" width="96" height="84" rx="12" stroke="white" stroke-width="8"/>
<rect x="8" y="24" width="96" height="84" rx="12" stroke="#4285F4" stroke-width="8"/>
<rect x="8" y="24" width="96" height="84" rx="12" fill="white" fill-opacity="0.01"/>
<rect x="8" y="24" width="96" height="84" rx="12" stroke="white" stroke-width="8"/>
<rect x="8" y="24" width="96" height="84" rx="12" stroke="#4285F4" stroke-width="8"/>
<rect x="8" y="24" width="96" height="84" rx="12" fill="white" fill-opacity="0.01"/>
<rect x="8" y="24" width="96" height="84" rx="12" stroke="white" stroke-width="8"/>
<rect x="8" y="24" width="96" height="84" rx="12" stroke="#4285F4" stroke-width="8"/>
<rect x="8" y="24" width="96" height="84" rx="12" fill="white" fill-opacity="0.01"/>
<rect x="8" y="24" width="96" height="84" rx="12" stroke="white" stroke-width="8"/>
<rect x="8" y="24" width="96" height="84" rx="12" stroke="#4285F4" stroke-width="8"/>
<rect x="8" y="24" width="96" height="84" rx="12" fill="white" fill-opacity="0.01"/>
<rect x="8" y="24" width="96" height="84" rx="12" stroke="white" stroke-width="8"/>
<rect x="8" y="24" width="96" height="84" rx="12" stroke="#4285F4" stroke-width="8"/>
<rect x="8" y="24" width="96" height="84" rx="12" fill="white" fill-opacity="0.01"/>
<rect x="8" y="24" width="96" height="84" rx="12" stroke="white" stroke-width="8"/>
<rect x="8" y="24" width="96" height="84" rx="12" stroke="#4285F4" stroke-width="8"/>
<rect x="8" y="24" width="96" height="84" rx="12" fill="white" fill-opacity="0.01"/>
<rect x="8" y="24" width="96" height="84" rx="12" stroke="white" stroke-width="8"/>
<rect x="8" y="24" width="96" height="84" rx="12" stroke="#4285F4" stroke-width="8"/>
<rect x="8" y="24" width="96" height="84" rx="12" fill="white" fill-opacity="0.01"/>
<rect x="8" y="24" width="96" height="84" rx="12" stroke="white" stroke-width="8"/>
<rect x="8" y="24" width="96" height="84" rx="12" stroke="#4285F4" stroke-width="8"/>
<rect x="8" y="24" width="96" height="84" rx="12" fill="white" fill-opacity="0.01"/>
<rect x="8" y="24" width="96" height="84" rx="12" stroke="white" stroke-width="8"/>
<rect x="8" y="24" width="96" height="84" rx="12" stroke="#4285F4" stroke-width="8"/>
<rect x="8" y="24" width="96" height="84" rx="12" fill="white" fill-opacity="0.01"/>
<rect x="8" y="24" width="96" height="84" rx="12" stroke="white" stroke-width="8"/>
<rect x="8" y="24" width="96" height="84" rx="12" stroke="#4285F4" stroke-width="8"/>
<rect x="8" y="24" width="96" height="84" rx="12" fill="white" fill-opacity="0.01"/>
<rect x="8" y="24" width="96" height="84" rx="12" stroke="white" stroke-width="8"/>
<rect x="8" y="24" width="96" height="84" rx="12" stroke="#4285F4" stroke-width="8"/>
<rect x="8" y="24" width="96" height="84" rx="12" fill="white" fill-opacity="0.01"/>
<rect x="8" y="24" width="96" height="84" rx="12" stroke="white" stroke-width="8"/>
<rect x="8" y="24" width="96" height="84" rx="12" stroke="#4285F4" stroke-width="8"/>
<rect x="8" y="24" width="96" height="84" rx="12" fill="white" fill-opacity="0.01"/>
<rect x="8" y="24" width="96" height="84" rx="12" stroke="white" stroke-width="8"/>
<rect x="8" y="24" width="96" height="84" rx="12" stroke="#4285F4" stroke-width="8"/>
<rect x="32" y="8" width="48" height="16" rx="8" fill="#4285F4"/>
</svg>
